Patient4_TMGait_0pt7_02_left_07_EMG.mot
version=1
nRows=40
nColumns=33
inDegrees=no
endheader
time	1LAddLong	2LGlutMax	3LGlutMed	4LIliopsoas	5LSemiMemb	6LBicFemLong	7LRecFem	8LVastMed	9LVastLat	10LGasMed	11LTibAnt	12lTibPost	13LPeroneusLong	14LSol	15LExtDigLong	16LFlexDigLong	17RAddLong	18RGlutMax	19RGlutMed	20RIliopsoas	21RSemiMemb	22RBicFemLong	23RRecFem	24RVastMed	25RVastLat	26RGasMed	27RTibAnt	28RTibPost	29RPeroneusLong	30RSol	31RExtDigLong	32RFlexDigLong
8.405	0.010223	-0.2417	-0.28015	0.007935	-0.012512	-0.031433	-0.70465	0.002441	-0.045166	0.44922	0.00412	0.20996	-0.046387	0.12253	0.010529	0.98297	0.056	-0.20798	1.0942	0.073242	0.34882	-0.3122	0.02533	-0.33432	-0.055542	-0.000458	0.38132	0.000305	-0.048676	-0.007629	-0.001984	-0.017548
8.406	0.013885	-0.20828	-0.31815	0.013733	0.006714	-0.10452	-0.70602	0.010834	-0.055237	0.26276	0.001526	0.52368	-0.14221	0.34714	0.011444	-0.14252	0.011902	-0.36102	1.0962	-0.016785	0.46722	-0.20157	-0.050201	-0.015869	0.035095	-0.003967	0.007629	0.002899	-0.064392	-0.009613	-0.000458	-0.029297
8.407	0.022888	-0.23102	-0.32135	0.025177	-0.00946	-0.12955	-0.70511	0.015717	-0.063324	-0.36514	0.010223	-0.46341	-0.16312	0.24277	-0.019226	0.018158	0.084686	-0.48096	0.93536	-0.016327	0.14847	-0.19974	0.062714	-0.11459	-0.002441	-0.000305	-0.4245	0.002747	-0.018616	-0.034943	-0.003052	-0.025787
8.408	0.014191	-0.31204	-0.32272	-0.002747	0.010223	-0.085602	-0.68405	0.009613	-0.070038	-0.50293	0.011292	0.025177	-0.15656	0.039063	-0.057373	0.21927	0.076904	-0.5339	0.97565	-0.019073	-0.084381	-0.15747	0.23819	-0.36102	-0.16403	0.005035	-0.36407	0.001678	-0.05249	-0.054169	-0.007477	-0.017242
8.409	0.008392	-0.31693	-0.33615	-0.006866	-0.007935	0.024719	-0.68924	0.00946	-0.068512	-0.35248	0.005646	0.12543	0.032501	0.16953	-0.071106	0.059052	0.054321	-0.6575	1.1342	-0.002136	-0.017548	-0.080566	0.18997	-0.43304	-0.16342	-0.003815	-0.18814	0.002136	-0.044403	-0.040741	0.001984	-0.02533
8.41	0.012054	-0.29526	-0.31632	-0.013733	0.020752	0.033112	-0.65521	0.012054	-0.067902	-0.15289	-0.001678	0.000763	0.046234	-0.11505	-0.047302	-0.072632	0.067596	-0.71014	0.97733	0.057831	0.07782	-0.024567	0.12451	-0.47455	-0.10971	-0.001221	0.046539	0	0.047455	-0.061035	-0.004272	-0.020905
8.411	0.00061	-0.24078	-0.31448	-0.004425	0.013733	-0.007019	-0.65979	0.021362	-0.066376	-0.081482	0.010529	-0.13947	0.018921	-0.52933	-0.000458	0.14755	0.072479	-0.63309	0.92956	0	0.032959	0.074768	0.093994	-0.34134	0.005798	0.003815	0.066376	0.003662	0.15656	-0.12543	-0.001984	-0.0177
8.412	0.010071	-0.26779	-0.29846	0.019531	0.003052	0.005035	-0.63705	0.009308	-0.055237	-0.070038	-0.001068	-0.045624	0.038147	-1.0936	-0.016174	0.007324	0.097046	-0.52582	1.093	-0.040436	-0.12863	0.26871	-0.066071	-0.33875	0.99609	0.001373	-0.15121	0.002899	0.16068	-0.10651	0.005341	-0.016785
8.413	0.003967	-0.26062	-0.29465	-0.008087	-0.009918	0.003052	-0.63019	0.006866	-0.05722	-0.080719	-0.004883	-0.005035	0.067291	-1.1249	-0.031433	-0.068512	0.025787	-0.3978	1.2529	-0.087433	-0.32715	0.35111	-0.12238	-0.37231	1.2122	-0.007324	-0.25604	0.000916	0.055695	-0.063934	-0.001373	-0.015411
8.414	0.007782	-0.27283	-0.2803	-0.022736	0.021057	-0.040436	-0.65201	0.006409	-0.052643	-0.21744	-0.002136	-0.11688	0.097046	-0.48859	0.008087	-0.076752	-0.064087	-0.32166	1.1421	-0.092316	-0.59357	0.36911	-0.19104	-0.25528	0.62134	-0.011749	-0.42206	0.001984	0.00412	-0.020142	-0.004272	-0.022278
8.415	0.019531	-0.24475	-0.28168	-0.000305	-0.026093	-0.10223	-0.66132	-0.002594	-0.047913	-0.35797	0.00351	-0.032043	0.095062	0.2095	0.03418	-0.046692	-0.10346	-0.22797	1.2399	-0.034027	-0.5513	0.50537	-0.2861	-0.27786	0.001373	-0.006104	-0.19424	0.002289	0.02533	-0.062866	-0.005035	-0.014648
8.416	0.01236	-0.18265	-0.26611	-0.005341	-0.036774	-0.046997	-0.65018	-0.000305	-0.039368	-0.17731	0.002441	0.064392	0.074158	0.29999	0.004272	-0.026093	-0.1326	-0.094452	1.2617	0.044098	-0.13977	0.504	-0.26215	-0.080109	-0.14572	0.000763	-0.20767	0.000305	0.090179	-0.1091	-0.004272	-0.016785
8.417	0.020294	-0.15732	-0.24155	0.001678	-0.010681	0.093994	-0.6279	-0.00351	-0.055847	0.00061	0.007629	-0.021362	0.041351	0.2121	-0.016937	-0.018005	-0.055084	-0.11612	0.95535	-0.033417	0.13962	0.54138	-0.23895	-0.24033	-0.1712	0.00351	-0.1857	0.002747	0.10666	-0.041962	-0.001831	-0.020294
8.418	0.013275	-0.16327	-0.20386	0.010223	0.061798	0.15915	-0.63232	0.00824	-0.077362	0.16556	0.011749	-0.045624	0.032501	0.19653	-0.020752	-0.031433	-0.012054	-0.10407	1.0139	-0.094452	0.55054	0.47119	-0.24796	-0.18326	-0.27847	-0.000458	-0.17029	-0.001678	0.095825	0.086212	-0.001984	-0.016937
8.419	0.019073	-0.083466	-0.18662	0.017548	0.052338	0.14389	-0.62592	0.003052	-0.070496	0.2594	0.007629	-0.051575	0.082397	0.1178	-0.010223	-0.048981	-0.010986	-0.15152	1.1798	-0.11643	0.84213	0.31296	-0.26413	-0.087585	0.070343	-0.000458	-0.18616	-0.000916	0.095978	0.095367	0.005646	-0.038147
8.42	0.026855	-0.092621	-0.15991	0.023346	0.028381	0.087738	-0.64941	0.005035	-0.084686	0.26703	0.002899	-0.030212	0.12924	0.078735	-0.003052	-0.049744	-0.018158	-0.16205	1.0564	-0.103	0.85663	0.29678	-0.039063	-0.014801	0.02533	-0.003662	0.036163	0.000916	0.093231	0.046844	-0.000916	-0.039063
8.421	0.022888	-0.078583	-0.16525	0.014038	0.032959	0.11047	-0.68512	0.003357	-0.10849	0.10788	-0.000458	0.005035	0.085449	0.12238	0.014191	-0.022125	-0.002594	-0.22217	0.76431	0.011902	0.68542	0.28046	0.242	0.024872	-0.084076	-0.005341	0.12085	0.00061	0.090485	0.019379	0.001221	-0.047913
8.422	0.024872	-0.077362	-0.13458	0.00824	0.001373	-0.12741	-0.71335	-0.00351	-0.085907	-0.13489	0.014191	-0.016937	0.066833	0.12833	0.022583	-0.016174	-0.025024	-0.39642	0.57617	-0.028381	0.54153	0.30762	0.25971	0.2858	-0.12604	-0.003357	0.17151	0.000916	0.087128	0.003204	-0.001831	-0.044556
8.423	0.023346	-0.067749	-0.083618	-0.003052	-0.084534	-0.13367	-0.71716	-0.009003	-0.087128	-0.28534	-0.041199	-0.005188	0.019836	0.11749	0.001831	-0.014648	-0.112	-0.4425	0.62485	0.010834	0.54443	0.39307	0.18707	0.41992	-0.20172	-0.00061	0.17777	0.000763	0.061493	0.092621	0.004272	-0.046997
8.424	0.024109	-0.045471	-0.059204	-0.008698	-0.16098	-0.032043	-0.71442	-0.003967	-0.084534	-0.32928	-0.023499	-0.020599	-0.003357	0.080872	-0.008087	0.001678	-0.19806	-0.47653	0.68314	0.2536	0.30624	0.46539	0.009003	0.68405	-0.28946	-0.009003	0.14801	0.003357	0.059357	0.10468	-0.002747	-0.034637
8.425	0.03479	-0.023193	-0.030975	-0.001984	-0.14374	0.019531	-0.71976	-0.005646	-0.035553	-0.26138	0.005035	0.001984	-0.014648	0.12741	-0.002594	-0.027161	-0.13412	-0.47211	0.77743	0.31021	0.2739	0.26154	-0.11078	0.52521	-0.40329	0.007935	0.11688	-0.003662	0.069885	0.073242	-0.002747	-0.036469
8.426	0.029602	0.015717	-0.028534	-0.00824	0.057373	-0.022736	-0.67291	0.00061	-0.058899	-0.12543	-0.010529	-0.002594	0.013275	0.14771	0.01236	0.046844	-0.035095	-0.49896	0.62653	0.20432	0.36667	-0.038757	-0.37994	0.2504	-0.51651	-0.00473	0.13473	0.001373	0.043182	0.023651	-0.002441	-0.039978
8.427	0.035858	0.074463	-0.015106	-0.001068	0.11246	-0.072021	-0.64758	0.001831	-0.087433	-0.17548	-0.013123	-0.007324	0.021057	0.16159	0.010376	0.12863	-0.007782	-0.27557	0.51025	0.23117	0.46417	-0.12543	-0.63446	0.36667	-0.37262	0.00824	0.20584	0.001526	0.020752	-0.005798	-0.001831	-0.034637
8.428	0.032196	0.09613	-0.021515	-0.000916	0.054779	-0.12024	-0.62958	-0.000153	-0.090485	-0.19836	-0.010834	-0.020294	0.012665	0.10315	0.014648	-0.45502	-0.018768	-0.041504	0.38315	0.13733	0.5339	-0.18982	-0.67459	0.27084	0.079041	0.002747	0.2002	0.001831	0.032806	0.003052	-0.005188	-0.026245
8.429	0.023956	0.063934	-0.039368	-0.013733	0.017548	-0.11383	-0.62637	-0.001221	-0.10132	-0.14893	-0.015564	-0.013733	0.052948	0.028076	-0.011292	0.059509	0.042267	0.060577	0.37186	0.072632	0.52811	-0.27451	-0.32715	0.057526	0.072479	-0.002136	0.17319	0.009003	0.016937	-0.010986	-0.001068	-0.027466
8.43	0.039825	0.080872	-0.030212	0.00412	-0.006714	-0.15549	-0.57785	0.001831	-0.084839	0.040741	-0.006256	0.01236	0.007782	-0.021057	-0.014038	0.093536	0.089874	0.22324	0.33722	0.035858	0.53879	-0.27756	-0.059357	-0.16861	0.019836	-0.001221	0.13748	0.000153	0.001984	-0.013428	-0.002441	-0.02243
8.431	0.036469	0.096741	-0.021057	0.002747	-0.011444	-0.024567	-0.55771	0.004578	-0.075989	-0.083466	-0.018616	0.017395	0.020905	-0.09491	0.001678	0.036926	0.085907	0.25955	0.29877	-0.039063	0.22446	-0.3537	0.037689	-0.2803	0.079346	0.002136	-0.067291	0.001831	0.024414	0.046997	-0.002289	-0.022583
8.432	0.013123	0.12909	-0.019531	0.008087	0.000305	0.14114	-0.54275	0.003204	-0.070343	-0.075378	-0.007629	0.018005	0.006714	-0.1384	0.01236	-0.39948	0.022583	0.29816	0.15045	-0.099487	-0.003662	-0.25696	-0.044556	-0.15991	0.14679	0.003357	-0.1236	0.003967	-0.009308	0.066681	0.001984	-0.02182
8.433	0.021515	0.17731	-0.025635	0.028992	-0.002136	0.19806	-0.53604	0.005035	-0.06134	0.036926	0.008545	0.015564	-0.004272	-0.11704	-0.020752	0.24109	-0.039825	0.22095	0.10819	-0.15961	0.072784	-0.031738	0.024872	-0.05722	0.23041	-0.006866	0.016632	0.005341	-0.053864	0.064697	0.001831	-0.019989
8.434	0.025787	0.18875	-0.013885	0.012512	-0.022583	0.1944	-0.53787	-0.000763	-0.065918	0.48813	0.010986	0.010376	-0.04837	0.048065	-0.002747	0.00885	-0.0383	0.20111	0.41779	-0.17532	0.22308	0.15152	0.026855	-0.11688	0.31021	-0.004578	0.077972	0.005341	-0.072479	0.043488	-0.002899	-0.021667
8.435	0.032043	0.18906	0.001526	-0.022888	-0.035553	0.050659	-0.52643	-0.002289	-0.063324	0.77438	-0.001526	0.005035	-0.065613	0.16693	0.00061	0.008392	-0.006866	-0.009918	0.72922	-0.12741	0.35629	0.15182	0.095673	-0.20584	0.30884	-0.015411	0.12924	-0.018463	-0.084381	-0.054932	-0.001221	-0.024414
8.436	0.035858	0.16083	0.016479	-0.013275	-0.005035	-0.066071	-0.4866	0.000458	-0.081787	0.26535	-0.009613	0.006866	-0.032806	0.18707	-0.007324	0.28061	-0.004578	-0.065002	0.88654	-0.11673	0.44067	0.068512	0.15259	-0.060577	0.19608	-0.011444	-0.0914	-0.014954	0.001221	-0.18631	-0.002136	-0.016785
8.437	0.032196	0.15625	-0.001373	0	0.031128	-0.097656	-0.47455	0.005188	-0.071259	-0.64636	0.007935	0.006256	-0.027771	0.18509	-0.014343	0.025482	-0.015106	0.10498	0.54031	-0.041962	0.43015	0.052338	0.21744	0.079956	0.002441	0.011444	-0.18036	-0.007935	0.054169	-0.13062	-0.007019	-0.018463
8.438	0.037842	0.1973	-0.006714	-0.004578	0.066681	-0.074615	-0.46356	0.002747	-0.070648	-0.46051	0.005188	0.006256	-0.050659	0.12039	-0.025024	-0.007019	-0.059662	0.27313	0.032196	0.023499	0.58746	0.022583	0.051727	0.17014	-0.33752	-0.006561	-0.016327	-0.002441	0.076904	-0.088806	-0.001221	-0.028381
8.439	0.02533	0.23361	0.004272	0.011902	0.065308	-0.036621	-0.47394	0.000916	-0.065765	-0.21927	0.014191	-0.001373	-0.03067	0.12466	-0.024567	-0.024567	-0.029907	0.18066	-0.019226	0.090942	0.56961	-0.010071	-0.095367	0.28198	-0.7077	0.000153	-0.077209	-0.006104	0.040894	-0.062561	0.000153	-0.029449
8.44	0.00824	0.1828	0.006561	-0.006256	0.03006	0.050507	-0.44998	0.001526	-0.074463	-0.38635	0.016632	0.005646	-0.018005	0.095215	-0.035095	-0.027924	0.015564	0.21378	0.087433	0.000153	0.22308	0.038452	-0.16968	0.34195	-0.47684	-0.008698	-0.019989	-0.000916	-0.011444	-0.00946	-0.002899	-0.022583
8.441	0.020905	0.20447	0.010681	-0.009613	-0.021667	0.036621	-0.44067	0.001831	-0.075378	-0.37155	0.007172	0.008087	-0.047455	-0.04715	-0.030823	-0.028839	0.047455	0.17319	0.31006	-0.030823	-0.17487	0.18372	-0.18646	0.26504	-0.27634	-0.013123	0.2565	-0.001678	-0.006256	-0.044403	-0.003357	-0.021973
8.442	0.01358	0.22003	0.009155	-0.00885	-0.053253	0.029449	-0.44067	0.003967	-0.081177	-0.26093	0.026703	-0.005035	-0.081024	-0.12619	-0.017853	-0.020142	0.084534	0.18875	0.73639	0.028839	-0.32364	0.34439	-0.081482	0.1799	-0.045776	-0.008545	0.35919	0.000458	0.06897	-0.10742	-0.003052	-0.005188
8.443	0.017548	0.24918	0.009155	-0.018005	-0.070496	0.027313	-0.42664	0.007172	-0.058899	-0.21072	0.015564	-0.015259	-0.053558	-0.075531	-0.002899	-0.013123	0.14938	0.19424	0.74905	0.033264	-0.094452	0.45715	-0.077057	0.062866	0.075684	-0.007477	0.27893	-0.006561	0.000763	-0.16388	-0.001678	-0.020447
8.444	0.031281	0.24582	0.001221	0.018921	-0.012817	0.013123	-0.44708	-0.003662	-0.049133	-0.13565	-0.010529	-0.014648	0.021973	-0.032196	0.12772	-0.015259	0.15564	0.045471	0.057678	0.011139	0.15411	0.44113	-0.42007	0.41504	0.21011	-0.010376	0.23025	-0.008698	-0.015106	-0.14206	0.000305	-0.02121
